# xmcd
#
# Track frame offsets:
#	150
#	12992
#	23724
#	31974
#	41374
#	59214
#	68142
#	78682
#	90502
#	101302
#	107799
#	115399
#	125626
#	135439
#	146251
#	156543
#
# Disc length: 2262 seconds
#
# Revision: 1
# Processed by: cddbd v1.4PL0 Copyright (c) Steve Scherf et al.
# Submitted via: audiograbber 1.81.02
#
DISCID=d808d410
DTITLE=Various Artist - Worlds Hottest Bluegrass
DYEAR=2002
DGENRE=Bluegrass
TTITLE0=Wynn Osbourne - Bluegrass Breakdown
TTITLE1=Osbourne Brothers - Hillbilly Fever
TTITLE2=Joe Maphis - Liberty
TTITLE3=Grandpa Jones - Are You From Dixie
TTITLE4=Jim Silvers - Katy Daly
TTITLE5=Clarence "Tater" Tate ft, Lester Flatts - Fiddlin' Cricket
TTITLE6=Osbourne Brothers - Jesse James
TTITLE7=Josh Graves and Bobby Smith - Shiloh March
TTITLE8=Jim and Jesse - Diesel On My Tail
TTITLE9=Fiddlin' Ronnie Stewart - Durham's Bull
TTITLE10=Nashville Grass ft, Marty Stuart - Roanoke
TTITLE11=Wynn OsbourneJoe Maphis - Earl's Breakdown
TTITLE12=Joe Maphis - Fiddle Pickin'
TTITLE13=Jim Silvers - Cannonball Yodel
TTITLE14=Stonemans - Heartbreak Mountain
TTITLE15=Chubby Anthony - Lee Highway Blues
EXTD=
EXTT0=
EXTT1=
EXTT2=
EXTT3=
EXTT4=
EXTT5=
EXTT6=
EXTT7=
EXTT8=
EXTT9=
EXTT10=
EXTT11=
EXTT12=
EXTT13=
EXTT14=
EXTT15=
PLAYORDER=
